<?xml version="1.0" standalone="no"?>
<!DOCTYPE svg PUBLIC "-//W3C//DTD SVG 20010904//EN"
 "http://www.w3.org/TR/2001/REC-SVG-20010904/DTD/svg10.dtd">
<svg version="1.0" xmlns="http://www.w3.org/2000/svg"
 width="9610.000000pt" height="4267.000000pt" viewBox="0 0 9610.000000 4267.000000"
 preserveAspectRatio="xMidYMid meet">

 

<g transform="translate(0.000000,4267.000000) scale(0.100000,-0.100000)"
fill="#ffffff" stroke="none">
<path d="M11358 34184 l-6928 -4026 1746 -1008 1746 -1008 47 28 c170 103
3398 1974 3411 1977 11 3 2134 -1217 5246 -3014 2875 -1660 5231 -3017 5234
-3016 19 5 10385 6034 10387 6041 3 9 -13920 8046 -13944 8050 -10 1 -3135
-1810 -6945 -4024z m10453 -2011 c1913 -1105 3477 -2011 3476 -2015 -2 -9
-3401 -1986 -3437 -2000 -22 -9 -392 202 -3500 1997 -1911 1103 -3478 2010
-3482 2013 -8 8 3428 2010 3451 2011 7 1 1579 -902 3492 -2006z"/>
<path d="M10793 29448 c-172 -100 -310 -184 -308 -188 2 -3 148 -89 324 -191
176 -101 317 -187 313 -191 -13 -13 -1577 -920 -1587 -921 -5 0 -156 84 -334
187 -244 142 -328 186 -341 179 -10 -4 -153 -87 -319 -183 -227 -133 -297
-178 -288 -186 13 -13 2035 -1180 2059 -1189 8 -3 148 71 332 178 l317 185
-128 74 c-70 41 -217 125 -325 188 -109 63 -198 116 -198 119 1 9 1581 924
1594 924 6 0 153 -83 326 -184 173 -100 322 -183 330 -183 17 0 630 353 630
363 0 7 -2054 1195 -2073 1198 -7 2 -152 -79 -324 -179z"/>
<path d="M26094 24376 l-6951 -4040 -6 -2155 c-3 -1186 -4 -2157 -2 -2159 1
-2 393 224 871 502 478 277 870 503 872 502 3 -4 -18 -7419 -22 -7431 -2 -6
-395 -238 -873 -515 l-869 -505 -7 -1484 c-11 -2327 -10 -2834 7 -2828 21 8
13870 8057 13881 8068 9 9 37 8176 32 9499 l-2 636 -960 -558 -960 -558 -6
-268 c-4 -147 -8 -998 -9 -1892 -2 -894 -6 -2084 -9 -2645 l-6 -1020 -830
-483 c-456 -265 -843 -490 -859 -498 l-28 -16 7 2907 8 2907 -29 -16 c-16 -8
-450 -260 -964 -559 l-935 -544 -3 811 c-1 446 1 812 5 814 5 2 1264 733 2798
1625 l2790 1622 7 1930 c4 1062 7 2034 5 2160 l-2 230 -6951 -4039z m-101
-4840 c183 -35 327 -109 463 -238 178 -170 277 -357 349 -658 72 -304 83 -753
29 -1170 -96 -745 -436 -1497 -967 -2141 l-97 -118 645 -1001 c355 -550 645
-1005 645 -1009 0 -9 -1873 -1101 -1887 -1101 -4 1 -253 395 -553 877 -300
482 -552 885 -561 896 -15 19 -23 15 -315 -154 l-299 -174 -5 -1230 -5 -1230
-540 -313 c-297 -173 -690 -401 -874 -508 l-334 -194 7 2327 c3 1281 9 2956
12 3723 l7 1396 1435 834 c790 459 1508 871 1597 915 486 245 908 336 1248
271z"/>
<path d="M24540 17474 c-171 -36 -291 -94 -752 -362 l-338 -196 0 -898 c0
-494 2 -898 6 -898 10 0 650 374 744 435 475 309 750 682 826 1120 34 198 19
479 -32 602 -73 174 -235 245 -454 197z"/>
<path d="M13251 27585 c-167 -349 -308 -635 -313 -635 -18 0 -2291 -370 -2295
-374 -8 -8 803 -469 823 -468 49 3 1018 207 1217 256 120 29 220 50 222 45 3
-4 -37 -72 -89 -151 -82 -125 -396 -684 -396 -705 0 -9 834 -493 847 -493 5 0
143 295 308 656 165 361 305 658 310 660 6 2 501 87 1100 189 600 102 1096
186 1103 188 7 1 -172 109 -398 239 l-411 237 -392 -90 c-216 -49 -519 -121
-675 -160 -156 -39 -285 -69 -288 -66 -3 2 46 83 109 178 62 96 173 277 247
402 111 191 130 231 119 241 -14 13 -834 486 -840 486 -2 -1 -141 -286 -308
-635z"/>
<path d="M35530 24675 l0 -3455 655 0 655 0 0 1109 0 1109 523 5 c544 5 617
10 887 57 464 82 923 281 1242 538 438 354 712 863 805 1497 25 171 25 602 0
770 -54 360 -181 674 -374 928 -62 82 -211 235 -298 307 -356 292 -868 485
-1475 554 -254 29 -536 36 -1577 36 l-1043 0 0 -3455z m2205 2365 c622 -53
1013 -315 1159 -778 71 -225 82 -507 30 -762 -51 -250 -172 -472 -348 -638
-166 -157 -371 -257 -644 -314 -100 -21 -137 -22 -599 -26 l-493 -3 0 1265 0
1266 388 0 c213 0 441 -5 507 -10z"/>
<path d="M41560 27595 l0 -535 760 0 760 0 0 -2385 0 -2385 -760 0 -760 0 0
-535 0 -535 2180 0 2180 0 0 535 0 535 -760 0 -760 0 0 2385 0 2385 760 0 760
0 0 535 0 535 -2180 0 -2180 0 0 -535z"/>
<path d="M46893 28123 c3 -5 422 -763 931 -1686 l927 -1678 -994 -1767 -994
-1767 776 -3 c427 -1 781 0 787 2 5 2 302 571 660 1265 357 693 651 1261 654
1261 3 0 303 -568 666 -1263 l662 -1262 827 -3 c661 -2 826 0 822 10 -2 7
-466 804 -1030 1770 l-1026 1757 925 1683 c508 925 924 1683 924 1685 0 2
-344 3 -763 3 l-764 0 -604 -1200 c-332 -659 -607 -1196 -611 -1192 -4 4 -286
543 -627 1197 l-620 1190 -766 3 c-421 1 -764 -1 -762 -5z"/>
<path d="M53640 24675 l0 -3455 2080 0 2080 0 0 550 0 550 -1420 0 -1420 0 2
958 3 957 1353 3 1352 2 0 535 0 535 -1355 0 -1355 0 2 858 3 857 1418 3 1417
2 0 550 0 550 -2080 0 -2080 0 0 -3455z"/>
<path d="M59667 28123 c-4 -3 -7 -1558 -7 -3455 l0 -3448 2120 0 2120 0 0 555
0 555 -1457 2 -1458 3 -3 2898 -2 2897 -653 0 c-360 0 -657 -3 -660 -7z"/>
<path d="M64583 28102 c4 -21 1904 -6252 2068 -6784 l31 -98 864 0 c475 0 864
2 864 4 0 3 473 1545 1051 3428 577 1883 1053 3435 1056 3451 l6 27 -691 0
c-649 0 -691 -1 -696 -17 -68 -224 -1226 -4334 -1357 -4816 -100 -372 -186
-674 -190 -670 -3 5 -81 283 -174 618 -92 336 -431 1553 -755 2705 -323 1152
-593 2114 -599 2138 l-12 42 -736 0 -735 0 5 -28z"/>
<path d="M71320 27595 l0 -535 760 0 760 0 0 -2385 0 -2385 -760 0 -760 0 0
-535 0 -535 2180 0 2180 0 0 535 0 535 -760 0 -760 0 0 2385 0 2385 760 0 760
0 0 535 0 535 -2180 0 -2180 0 0 -535z"/>
<path d="M77160 24676 l0 -3456 650 0 650 0 0 1430 0 1430 148 0 c248 0 407
-28 560 -100 189 -89 354 -251 458 -450 10 -19 242 -546 515 -1170 l498 -1135
765 -3 765 -2 -43 92 c-169 363 -1099 2305 -1147 2397 -233 442 -466 688 -729
772 -62 19 -60 21 60 44 47 10 151 39 231 65 655 215 1045 685 1129 1360 15
127 13 460 -5 597 -69 528 -292 909 -690 1175 -322 216 -696 325 -1335 389
-77 8 -510 13 -1297 16 l-1183 5 0 -3456z m2166 2353 c392 -38 686 -166 830
-361 60 -82 100 -169 131 -286 23 -86 26 -117 27 -272 1 -149 -3 -188 -21
-262 -95 -373 -391 -620 -857 -713 -173 -34 -335 -45 -677 -45 l-299 0 0 975
0 975 378 0 c208 0 428 -5 488 -11z"/>
<path d="M82850 27585 l0 -545 945 0 945 0 0 -2910 0 -2910 665 0 665 0 0
2910 0 2910 945 0 945 0 0 545 0 545 -2555 0 -2555 0 0 -545z"/>
<path d="M15103 25667 c-788 -457 -1433 -835 -1433 -838 0 -3 450 -266 1000
-583 666 -385 1006 -576 1017 -572 49 19 622 361 616 367 -4 4 -282 166 -618
360 -335 193 -611 353 -613 354 -1 1 111 68 250 149 222 129 256 146 276 137
12 -6 242 -138 510 -293 268 -154 492 -281 497 -281 6 0 151 82 323 183 275
160 311 184 295 195 -10 6 -227 132 -483 280 -256 147 -477 275 -493 284 l-27
17 219 127 c120 70 223 127 229 127 7 0 276 -153 599 -339 324 -187 593 -341
599 -343 10 -3 648 362 642 367 -8 6 -1967 1135 -1970 1135 -2 0 -648 -375
-1435 -833z"/>
<path d="M17840 24099 c-784 -457 -1431 -833 -1438 -838 -9 -5 330 -206 987
-585 l1001 -578 315 183 c173 101 315 186 315 189 0 3 -267 159 -593 347 -326
189 -601 348 -610 355 -15 12 121 93 1084 653 606 352 1108 645 1116 650 10 8
-72 60 -349 220 -200 115 -372 214 -383 221 -18 10 -182 -83 -1445 -817z"/>
<path d="M10486 22837 c-4 -887 -10 -2680 -14 -3985 l-7 -2372 -3464 2000
c-1905 1100 -3466 1998 -3469 1996 -9 -10 -26 -7970 -16 -7973 5 -2 3125
-1803 6934 -4002 l6925 -3999 7 482 c3 264 11 2526 18 5026 6 2500 15 5870 20
7489 5 1620 9 2946 7 2947 -2 3 -6893 3981 -6918 3995 -15 8 -17 -119 -23
-1604z"/>
<path d="M66313 19334 c-892 -108 -1556 -577 -1953 -1379 -183 -368 -297 -745
-359 -1185 -87 -613 -77 -1369 25 -1970 126 -737 397 -1312 804 -1703 341
-328 764 -519 1310 -592 273 -37 677 -30 935 16 966 172 1629 770 1978 1785
128 372 197 756 228 1259 14 234 6 784 -16 1015 -56 606 -174 1068 -380 1486
-381 772 -999 1186 -1899 1273 -149 15 -536 12 -673 -5z m642 -1147 c504 -128
789 -509 929 -1242 90 -469 111 -1186 50 -1735 -102 -930 -428 -1436 -1014
-1571 -110 -26 -371 -36 -492 -20 -274 37 -461 125 -639 301 -118 118 -166
185 -244 345 -95 197 -162 421 -209 705 -98 594 -94 1432 10 1975 80 416 219
724 423 938 135 141 272 229 440 281 152 48 218 56 441 52 180 -3 217 -7 305
-29z"/>
<path d="M77800 19339 c-133 -14 -344 -55 -477 -93 -812 -234 -1378 -808
-1691 -1716 -116 -337 -186 -703 -223 -1160 -16 -193 -16 -772 0 -985 75
-1027 349 -1761 840 -2256 345 -347 782 -550 1341 -624 173 -23 523 -31 690
-16 1050 96 1791 673 2183 1701 128 334 208 692 252 1131 22 211 31 810 16
1054 -28 458 -90 839 -192 1175 -327 1083 -1011 1675 -2061 1785 -160 16 -532
19 -678 4z m516 -1134 c171 -30 316 -85 436 -166 87 -59 218 -188 278 -275
256 -370 390 -1012 390 -1869 0 -1195 -258 -1897 -795 -2167 -175 -89 -357
-123 -610 -114 -229 7 -354 36 -525 121 -422 211 -655 697 -747 1560 -26 248
-26 1036 0 1275 48 434 118 712 247 975 182 373 457 592 832 660 104 19 385
19 494 0z"/>
<path d="M84080 19344 c-392 -35 -699 -100 -1000 -211 -52 -19 -171 -72 -265
-118 -562 -275 -972 -693 -1256 -1280 -249 -515 -369 -1070 -386 -1785 -23
-1023 192 -1835 650 -2450 94 -127 347 -378 477 -474 224 -166 463 -289 745
-382 383 -126 737 -172 1244 -161 689 14 1232 124 1794 364 l107 46 0 1773 0
1774 -1185 0 -1185 0 0 -515 0 -515 565 0 565 0 -2 -852 -3 -852 -60 -19
c-214 -66 -352 -87 -585 -87 -357 0 -615 52 -865 174 -288 141 -505 361 -658
666 -186 371 -270 814 -271 1430 -1 282 10 429 45 650 142 895 610 1469 1349
1655 350 89 900 72 1380 -41 245 -58 560 -162 774 -256 50 -22 97 -42 104 -45
9 -4 12 123 12 614 l0 619 -168 47 c-372 105 -734 177 -1087 218 -90 10 -750
20 -835 13z"/>
<path d="M49705 19319 c-1498 -141 -2460 -1148 -2669 -2794 -52 -412 -56 -920
-10 -1338 75 -693 267 -1228 601 -1680 98 -132 329 -363 462 -461 450 -333
975 -501 1673 -536 603 -31 1215 72 1821 305 l97 38 0 583 c0 321 -2 584 -4
584 -1 0 -52 -21 -112 -46 -526 -223 -1027 -344 -1419 -344 -509 0 -914 149
-1209 444 -127 127 -209 243 -297 421 -143 287 -228 636 -260 1065 -15 203 -7
690 15 870 74 606 257 1042 566 1350 261 261 563 399 969 440 430 43 1000 -56
1511 -262 69 -28 146 -61 172 -74 26 -13 52 -24 58 -24 7 0 10 200 10 619 0
581 -1 619 -17 624 -458 135 -743 190 -1123 217 -170 12 -705 11 -835 -1z"/>
<path d="M35530 18720 l0 -520 908 -2 907 -3 3 -2797 2 -2798 640 0 640 0 0
2800 0 2800 910 0 910 0 0 520 0 520 -2460 0 -2460 0 0 -520z"/>
<path d="M41790 15920 l0 -3320 2000 0 2000 0 0 525 0 525 -1365 0 -1365 0 0
925 0 925 1300 0 1300 0 0 515 0 515 -1300 0 -1300 0 0 825 0 825 1365 0 1365
0 0 530 0 530 -2000 0 -2000 0 0 -3320z"/>
<path d="M52790 15920 l0 -3320 625 0 625 0 0 1445 0 1445 1125 0 1125 0 0
-1445 0 -1445 625 0 625 0 0 3320 0 3320 -625 0 -625 0 0 -1335 0 -1335 -1125
0 -1125 0 0 1335 0 1335 -625 0 -625 0 0 -3320z"/>
<path d="M58510 15920 l0 -3320 565 0 565 0 0 2402 c0 1407 4 2398 9 2392 5
-5 93 -205 195 -444 103 -239 581 -1315 1064 -2390 l878 -1955 767 -3 767 -2
0 3320 0 3320 -570 0 -570 0 0 -2377 c0 -1307 -3 -2373 -7 -2370 -3 4 -75 175
-160 379 -94 229 -505 1147 -1060 2370 l-908 1998 -767 0 -768 0 0 -3320z"/>
<path d="M70480 15920 l0 -3320 2040 0 2040 0 0 535 0 535 -1405 0 -1405 0 0
2785 0 2785 -635 0 -635 0 0 -3320z"/>
<path d="M86712 19232 c2 -4 488 -973 1081 -2153 l1077 -2146 0 -1167 0 -1166
635 0 635 0 0 1174 0 1174 1021 2008 c562 1105 1052 2071 1090 2147 l69 137
-667 0 -668 0 -510 -1013 c-473 -939 -526 -1048 -727 -1514 -119 -277 -220
-508 -223 -514 -4 -6 -116 234 -250 533 -183 409 -929 1998 -1156 2461 l-23
47 -694 0 c-381 0 -692 -4 -690 -8z"/>
</g>
</svg>
